<?xml version="1.0" encoding="UTF-8" standalone="no"?>
<!-- Created with Inkscape (http://www.inkscape.org/) -->

<svg
   xmlns:dc="http://purl.org/dc/elements/1.1/"
   xmlns:cc="http://creativecommons.org/ns#"
   xmlns:rdf="http://www.w3.org/1999/02/22-rdf-syntax-ns#"
   xmlns:svg="http://www.w3.org/2000/svg"
   xmlns="http://www.w3.org/2000/svg"
   xmlns:sodipodi="http://sodipodi.sourceforge.net/DTD/sodipodi-0.dtd"
   xmlns:inkscape="http://www.inkscape.org/namespaces/inkscape"
   width="24"
   height="24"
   id="svg2985"
   version="1.1"
   inkscape:version="0.48.4 r9939"
   sodipodi:docname="icon_24x24.svg"
   inkscape:export-filename="/home/adam/workspace/TailPlot/icon_32x32.png"
   inkscape:export-xdpi="90"
   inkscape:export-ydpi="90">
  <defs
     id="defs2987" />
  <sodipodi:namedview
     id="base"
     pagecolor="#ffffff"
     bordercolor="#666666"
     borderopacity="1.0"
     inkscape:pageopacity="0.0"
     inkscape:pageshadow="2"
     inkscape:zoom="22.395604"
     inkscape:cx="6.6849349"
     inkscape:cy="14.213935"
     inkscape:current-layer="layer1"
     showgrid="true"
     inkscape:grid-bbox="true"
     inkscape:document-units="px"
     inkscape:window-width="1920"
     inkscape:window-height="1006"
     inkscape:window-x="-4"
     inkscape:window-y="-4"
     inkscape:window-maximized="1"
     showguides="false">
    <inkscape:grid
       type="xygrid"
       id="grid2993"
       empspacing="5"
       visible="true"
       enabled="true"
       snapvisiblegridlinesonly="true" />
  </sodipodi:namedview>
  <metadata
     id="metadata2990">
    <rdf:RDF>
      <cc:Work
         rdf:about="">
        <dc:format>image/svg+xml</dc:format>
        <dc:type
           rdf:resource="http://purl.org/dc/dcmitype/StillImage" />
        <dc:title />
      </cc:Work>
    </rdf:RDF>
  </metadata>
  <g
     id="layer1"
     inkscape:label="Layer 1"
     inkscape:groupmode="layer"
     transform="translate(0,-8)">
    <rect
       style="fill:#404040;fill-opacity:1;fill-rule:evenodd;stroke:none;stroke-width:1;stroke-miterlimit:4;stroke-dasharray:none"
       id="rect3784"
       width="24"
       height="24"
       x="0"
       y="7.999999" />
    <path
       style="fill:none;stroke:#ffffff;stroke-width:1;stroke-linecap:square;stroke-linejoin:miter;stroke-miterlimit:4;stroke-opacity:1;stroke-dasharray:none"
       d="m 4.5,28.730562 c 0,1.79252 0,1.79252 0,1.79252"
       id="path3790"
       inkscape:connector-curvature="0" />
    <path
       style="fill:none;stroke:#ffffff;stroke-width:1;stroke-linecap:square;stroke-linejoin:miter;stroke-miterlimit:4;stroke-opacity:1;stroke-dasharray:none"
       d="m 13.476918,28.730562 c 0,1.79252 0,1.79252 0,1.79252"
       id="path3790-5"
       inkscape:connector-curvature="0" />
    <path
       style="fill:none;stroke:#ffffff;stroke-width:1;stroke-linecap:square;stroke-linejoin:miter;stroke-miterlimit:4;stroke-opacity:1;stroke-dasharray:none"
       d="m 22.476959,28.730521 c 0,1.79252 0,1.79252 0,1.79252"
       id="path3790-9"
       inkscape:connector-curvature="0" />
    <path
       style="fill:none;stroke:#ffffff;stroke-width:1;stroke-linecap:square;stroke-linejoin:miter;stroke-miterlimit:4;stroke-opacity:1;stroke-dasharray:none"
       d="m 4.5,28.5 -2,0"
       id="path3817"
       inkscape:connector-curvature="0" />
    <path
       style="fill:none;stroke:#ffffff;stroke-width:1;stroke-linecap:square;stroke-linejoin:miter;stroke-opacity:1;stroke-miterlimit:4;stroke-dasharray:none"
       d="m 4.5,19.5 -2,0"
       id="path3817-7"
       inkscape:connector-curvature="0" />
    <path
       style="fill:none;stroke:#ffffff;stroke-width:1;stroke-linecap:square;stroke-linejoin:miter;stroke-opacity:1;stroke-miterlimit:4;stroke-dasharray:none"
       d="m 4.5,10.5 -2,0"
       id="path3817-7-2"
       inkscape:connector-curvature="0" />
    <g
       id="g3952"
       transform="matrix(0.7330536,0,0,0.74210887,1.1949819,7.3562463)"
       style="stroke-width:1.35580075;stroke-miterlimit:4;stroke-dasharray:none">
      <rect
         ry="0"
         y="-1.4914446"
         x="4.5085549"
         height="29.982889"
         width="28.982889"
         id="rect3786"
         style="fill:#000000;fill-opacity:1;stroke:#ffffff;stroke-width:1.35580075;stroke-miterlimit:4;stroke-opacity:1;stroke-dasharray:none" />
      <path
         inkscape:connector-curvature="0"
         id="path3855"
         d="m 5,8 c 0.2384691,0.066895 0.4732068,0.1489041 0.7154074,0.2006865 0.072775,0.015559 0.1488387,0 0.2232581,0 0.089303,0 0.1786064,0 0.2679097,0 0.2135075,0 0.3745381,0.017128 0.580471,-0.044652 0.063756,-0.019127 0.1177808,-0.06227 0.1786065,-0.089303 0.073244,-0.032553 0.1515679,-0.053458 0.2232581,-0.089303 0.047999,-0.024 0.088447,-0.060861 0.1339549,-0.089303 C 7.396461,7.8421281 7.4776182,7.8074525 7.5461238,7.7541703 7.612584,7.702479 7.6525329,7.6188823 7.7247303,7.5755638 8.0071159,7.4061325 7.9918807,7.5384807 8.3052013,7.4862606 8.5280816,7.3971085 8.5169424,7.385845 8.7517175,7.3523057 c 0.058937,-0.00842 0.119071,0 0.1786065,0 0.1041871,0 0.2083742,0 0.3125613,0 0.074419,0 0.1488388,0 0.2232581,0 0.059536,0 0.119071,0 0.1786065,0 0.09685,0 0.1476757,-0.016512 0.2232581,0.089303 0.046588,0.065222 0.059536,0.1488387 0.089303,0.2232581 0.129546,0.3238643 0.067284,0.1461899 0.178607,0.5358194 0.179927,0.6297466 0.189469,0.6101677 0.312561,1.2502454 0.03419,0.177812 0.04917,0.359252 0.0893,0.5358194 0.03444,0.151528 0.100246,0.294825 0.133955,0.446517 0.02524,0.113557 0.08004,0.726554 0.0893,0.803729 0.07798,0.649844 0.122432,0.976091 0.312562,1.65211 0.125085,0.444747 0.186204,0.426323 0.401864,0.803729 0.04954,0.08669 0.08259,0.182294 0.133955,0.26791 0.03829,0.06381 0.09128,0.117639 0.133955,0.178606 0.06155,0.08793 0.117514,0.179665 0.178607,0.26791 0.07288,0.10527 0.154887,0.204308 0.223258,0.312561 0.266245,0.421556 0.336157,0.651668 0.669774,1.026987 0.105114,0.118254 0.231806,0.216095 0.357213,0.312562 0.06879,0.05291 0.148839,0.0893 0.223258,0.133955 0.07442,0.04465 0.145633,0.09514 0.223258,0.133954 0.181355,0.09068 0.4242,0.184987 0.625123,0.223258 0.206772,0.03939 0.417156,0.05681 0.625122,0.0893 0.26835,0.04193 0.535015,0.09444 0.80373,0.133955 0.237441,0.03492 0.47614,0.06071 0.714426,0.0893 0.133819,0.01606 0.267383,0.03569 0.401864,0.04465 0.01473,9.82e-4 0.531811,-0.001 0.53582,0 0.09686,0.02422 0.178606,0.0893 0.267909,0.133955 0.193491,0.04465 0.383892,0.105872 0.580471,0.133955 0.221505,0.03164 0.447131,0.02239 0.669775,0.04465 0.224116,0.02241 0.445204,0.07203 0.669774,0.0893 0.472697,0.03636 0.408618,-0.04653 0.803729,0.04465 0.09172,0.02117 0.176187,0.06814 0.26791,0.0893 0.10255,0.02367 0.21087,0.01753 0.312561,0.04465 0.08387,0.02237 0.578578,0.218804 0.669774,0.26791 0.182921,0.0985 0.313644,0.202195 0.446517,0.357213 0.03492,0.04075 0.05954,0.0893 0.0893,0.133955 0.02977,0.04465 0.06816,0.08463 0.0893,0.133955 0.03487,0.08136 0.08139,0.391114 0.0893,0.446516 0.01503,0.105233 0.08344,0.671182 0.0893,0.759078 0.01089,0.16336 0,0.327445 0,0.491167 0,0.178607 0,0.357213 0,0.53582 0,0.07442 -0.01614,0.150611 0,0.223258 0.146724,0.660261 0.04948,-0.358438 0.133955,0.401865 0.0066,0.05917 -0.0084,0.119669 0,0.178606 0.0067,0.04659 0.02977,0.0893 0.04465,0.133955 0.01488,0.04465 0.02977,0.0893 0.04465,0.133955 0.0087,0.02616 0.05645,0.190408 0.0893,0.223258 0.01052,0.01052 0.02977,0 0.04465,0 0.01488,0 0.02977,0 0.04465,0 0.0893,0 0.179645,-0.01358 0.26791,0 0.107096,0.01648 0.208374,0.05954 0.312561,0.0893 0.749541,0.214155 -0.182748,-0.05711 0.714426,0.223258 0.249345,0.07792 0.343316,0.08739 0.580471,0.178607 0.105797,0.04069 0.205573,0.09651 0.312562,0.133955 0.60947,0.213314 1.238429,0.348525 1.875368,0.446516 0.104021,0.016 0.20854,0.02865 0.312561,0.04465 0.08948,0.01377 0.177514,0.03963 0.26791,0.04465 0.178331,0.0099 0.35783,-0.01483 0.535819,0 1.404024,0.117002 -0.09387,0.03364 0.848381,0.178606 0.08826,0.01358 0.178606,0 0.26791,0 0.07442,0 0.148838,0 0.223258,0 0.07442,0 0.148838,0 0.223258,0 0.02977,0 0.06378,-0.01532 0.0893,0 0.05415,0.03249 0.07625,0.108309 0.133955,0.133955 0.08273,0.03677 0.178835,0.02846 0.26791,0.04465 0.07467,0.01358 0.149631,0.02624 0.223258,0.04465 0.04566,0.01142 0.08753,0.03691 0.133955,0.04465 0.102769,0.01713 0.209791,-0.01713 0.312561,0 0.05573,0.0093 0.193149,0.121911 0.223258,0.133955 0.08621,0.03448 0.538916,0.144124 0.625123,0.178607 0.04983,0.01993 0.08794,0.06169 0.133955,0.0893 0.32375,0.161875 -0.0706,-0.04707 0.133954,0.0893 0.02769,0.01846 0.06161,0.02619 0.0893,0.04465 0.08711,0.05808 0.02207,0.02155 0.04465,0.0893 0.01053,0.03157 0.03413,0.05773 0.04465,0.0893 0.0084,0.02519 0,0.104614 0,0.133955 0,0.104187 0,0.208374 0,0.312561 0,0.05943 -0.01446,0.179892 0,0.223258 0.0047,0.01412 0.03134,-0.0067 0.04465,0 0.01883,0.0094 0.02977,0.02977 0.04465,0.04465 0.02977,0.02977 0.05954,0.05954 0.0893,0.0893 0.02977,0.02977 0.05562,0.06405 0.0893,0.0893 0.05325,0.03994 0.125356,0.04937 0.178606,0.0893 0.03361,0.02521 0.198051,0.189648 0.223258,0.223258 0.01997,0.02662 0.02619,0.06161 0.04465,0.0893 0.01168,0.01751 0.03524,0.02583 0.04465,0.04465 0.0067,0.01331 -0.0067,0.03134 0,0.04465 0.04515,0.09031 0.103622,0.01432 0.133955,0.04465 0.02105,0.02105 -0.01246,0.06227 0,0.0893 C 32.903488,25.83531 32.954531,25.916258 33,26"
         style="fill:none;stroke:#ff0000;stroke-width:1.35580075;stroke-linecap:butt;stroke-linejoin:miter;stroke-miterlimit:4;stroke-opacity:1;stroke-dasharray:none" />
      <path
         inkscape:connector-curvature="0"
         id="path3857"
         d="m 5.4,12 c 0.068858,0.162414 0.065181,0.381755 0.2065752,0.487242 0.1192965,0.089 0.2976775,0 0.4465162,0 0.2976775,0 0.5953549,0 0.8930324,0 1.3693163,0 2.7386322,0 4.1079492,0 1.815832,0 3.631665,0 5.447497,0 0.654891,0 1.309781,0 1.964672,0 0.208374,0 0.416748,0 0.625122,0 0.178607,0 0.358018,-0.01693 0.53582,0 0.241391,0.02299 0.537138,0.128141 0.759077,0.223258 0.09177,0.03933 0.175746,0.09555 0.26791,0.133955 0.0059,0.0024 0.532869,0.177131 0.53582,0.178606 0.096,0.048 0.178606,0.119071 0.267909,0.178607 0.139718,0.09314 0.368341,0.234386 0.491168,0.357213 0.03795,0.03795 0.05578,0.09205 0.0893,0.133955 0.0263,0.03287 0.06595,0.05428 0.0893,0.0893 0.03692,0.05538 0.05954,0.119071 0.0893,0.178607 0.131401,0.262802 0.06825,0.115459 0.178606,0.446516 0.05954,0.178606 0.114268,0.358886 0.178607,0.535819 0.02739,0.07533 0.06396,0.147219 0.0893,0.223258 0.03881,0.116437 0.05954,0.238142 0.0893,0.357213 0.108896,0.435583 -0.02407,-0.108317 0.0893,0.401865 0.01331,0.05991 0.03134,0.1187 0.04465,0.178606 0.01646,0.07409 0.018,0.152197 0.04465,0.223258 0.15285,0.4076 0.03734,-0.06658 0.133955,0.223258 0.02861,0.08584 0.0463,0.226559 0.0893,0.312562 0.03881,0.07763 0.104296,0.141696 0.133955,0.223258 0.03094,0.08508 0.0098,0.184339 0.04465,0.26791 0.04128,0.09907 0.130608,0.171911 0.178607,0.267909 0.07074,0.141482 0.09122,0.296962 0.133955,0.446517 0.01293,0.04526 0.02044,0.09359 0.04465,0.133954 0.02166,0.0361 0.05954,0.05954 0.0893,0.0893 0.02977,0.02977 0.05562,0.06404 0.0893,0.0893 0.02662,0.01997 0.06076,0.02753 0.0893,0.04465 0.04602,0.02761 0.08463,0.06816 0.133955,0.0893 0.05641,0.02417 0.123717,0.01721 0.178606,0.04465 0.03765,0.01883 0.05165,0.07048 0.0893,0.0893 0.001,5.17e-4 0.350089,0.08727 0.357213,0.0893 0.04526,0.01293 0.08712,0.03997 0.133954,0.04465 0.10367,0.01037 0.208375,0 0.312562,0 0.297677,0 0.595355,0 0.893032,0 0.07442,0 0.148839,0 0.223258,0 0.02977,0 0.05972,-0.0033 0.0893,0 0.209202,0.02324 0.417496,0.0547 0.625122,0.0893 0.07486,0.01248 0.147742,0.0371 0.223258,0.04465 0.07405,0.0074 0.149208,-0.0074 0.223258,0 0.216239,0.02162 0.420099,0.115522 0.625123,0.178607 1.002587,0.286453 -0.241455,-0.08048 0.53582,0.178606 0.254039,0.08468 0.09755,0.0033 0.312561,0.0893 0.0309,0.01236 0.0584,0.03229 0.0893,0.04465 0.0437,0.01748 0.0936,0.02044 0.133955,0.04465 0.0361,0.02166 0.04937,0.07599 0.0893,0.0893 0.05648,0.01883 0.11967,-0.0084 0.178607,0 0.04659,0.0067 0.0887,0.03172 0.133955,0.04465 0.05901,0.01686 0.119826,0.02702 0.178606,0.04465 0.09016,0.02705 0.180509,0.05434 0.26791,0.0893 0.0618,0.02472 0.11778,0.06227 0.178606,0.0893 0.02336,0.01038 0.290264,0.120565 0.357213,0.133955 0.02919,0.0058 0.06011,-0.0058 0.0893,0 0.04615,0.0092 0.0878,0.03542 0.133955,0.04465 0.02919,0.0058 0.05954,0 0.0893,0 0.01488,0 0.03134,-0.0067 0.04465,0 0.03765,0.01883 0.04937,0.07599 0.0893,0.0893 0.02824,0.0094 0.06042,-0.0072 0.0893,0 0.03229,0.0081 0.05701,0.03658 0.0893,0.04465 0.02888,0.0072 0.06106,-0.0094 0.0893,0 0.0094,0.0031 0.125777,0.121687 0.133955,0.133955 0.01846,0.02769 0.02112,0.06577 0.04465,0.0893 0.0029,0.0029 0.170289,0.08376 0.178606,0.0893 0.01751,0.01168 0.02582,0.03524 0.04465,0.04465 0.01331,0.0067 0.02977,0 0.04465,0 0.01488,0 0.02977,0 0.04465,0 0.01488,0 0.05305,0.01229 0.04465,0 C 31.658221,20.312681 31.524142,20.159961 31.4,20"
         style="fill:none;stroke:#00ff00;stroke-width:1.35580075;stroke-linecap:butt;stroke-linejoin:miter;stroke-miterlimit:4;stroke-opacity:1;stroke-dasharray:none" />
      <path
         inkscape:connector-curvature="0"
         id="path3859"
         d="m 5,3 c 0.1938175,0.021917 0.3867367,0.054291 0.5814525,0.06575 0.178298,0.010493 0.357213,0 0.5358194,0 0.4167485,0 0.833497,0 1.2502454,0 0.9674518,0 1.9349035,0 2.9023557,0 0.223258,0 0.446516,0 0.669774,0 0.104187,0 0.208554,-0.00612 0.312561,0 0.149323,0.00878 0.29796,0.027174 0.446516,0.044652 0.104524,0.012297 0.210012,0.020986 0.312562,0.044652 0.258061,0.059553 0.322736,0.1312099 0.580471,0.2232581 0.102043,0.036444 0.210518,0.052859 0.312561,0.089303 0.106749,0.038124 0.204471,0.099821 0.312562,0.1339549 0.175557,0.055439 0.363438,0.069312 0.535819,0.1339548 0.186974,0.070115 0.35429,0.1847087 0.535819,0.2679097 0.175896,0.080619 0.358376,0.1461085 0.53582,0.2232581 0.09864,0.042886 0.531651,0.2516366 0.714426,0.3125614 0.102796,0.034265 0.211427,0.050406 0.312561,0.089303 0.105413,0.040543 0.640386,0.3340119 0.669774,0.357213 0.244883,0.2448821 0.568788,0.5862677 0.848381,0.8037291 0.127081,0.098841 0.27307,0.1713135 0.401865,0.2679098 0.117874,0.088406 0.196256,0.2221015 0.312561,0.3125613 0.06851,0.053282 0.157365,0.077475 0.223258,0.1339549 0.143834,0.1232864 0.26791,0.2679097 0.401865,0.4018645 0.253026,0.2530259 0.5018,0.510376 0.759077,0.7590776 0.189326,0.183015 0.406513,0.3381396 0.580471,0.5358194 0.155469,0.176669 0.265079,0.3889714 0.401865,0.5804711 0.154947,0.2169261 0.287564,0.3518695 0.401865,0.580471 0.03585,0.07169 0.05092,0.152893 0.0893,0.2232581 0.05139,0.094224 0.128098,0.1732076 0.178606,0.2679098 0.06898,0.1293433 0.10674,0.2741014 0.178607,0.4018644 0.06277,0.111593 0.158744,0.201967 0.223258,0.312561 0.04039,0.06923 0.04954,0.153667 0.0893,0.223258 0.02089,0.03655 0.05954,0.05954 0.0893,0.0893 0.01488,0.01488 0.03524,0.02582 0.04465,0.04465 0.0067,0.01331 0,0.02977 0,0.04465 0.0893,0.119071 0.180766,0.236552 0.26791,0.357213 0.228636,0.316573 0.452047,0.690804 0.714426,0.982336 0.235241,0.261379 0.188847,0.149315 0.357213,0.401864 0.256452,0.384678 0.463418,0.792883 0.669774,1.205594 0.05954,0.119071 0.126166,0.234851 0.178606,0.357213 0.03708,0.08652 0.05713,0.179443 0.0893,0.26791 0.02739,0.07533 0.05954,0.148838 0.0893,0.223258 0.02977,0.07442 0.05346,0.151568 0.0893,0.223258 0.286343,0.572686 0.168775,0.221005 0.401865,0.803729 0.02354,0.05886 0.121993,0.350823 0.133955,0.446516 0.0074,0.05908 -0.01636,0.121362 0,0.178607 0.01474,0.0516 0.06816,0.08463 0.0893,0.133954 0.03436,0.08017 0.06811,0.331226 0.0893,0.401865 0.168878,0.562928 0.01411,-0.176996 0.178606,0.535819 0.09116,0.395016 0.0092,0.164677 0.04465,0.625123 0.03334,0.433374 0.03208,0.02834 0.133955,0.401865 0.02769,0.101536 0.02977,0.208374 0.04465,0.312561 0.02977,0.104187 0.05744,0.208997 0.0893,0.312561 0.06921,0.224928 0.144106,0.44815 0.223258,0.669775 0.02696,0.07548 0.05038,0.153192 0.0893,0.223258 0.03614,0.06505 0.106316,0.10951 0.133955,0.178606 0.03362,0.08406 0.02269,0.180078 0.04465,0.26791 0.03769,0.150753 0.08482,0.299098 0.133954,0.446516 0.02259,0.06777 0.225201,0.602477 0.26791,0.759078 0.01997,0.07322 0.02624,0.149631 0.04465,0.223258 0.01141,0.04566 0.03542,0.0878 0.04465,0.133955 0.0058,0.02919 -0.0072,0.06042 0,0.0893 0.0081,0.03229 0.03413,0.05773 0.04465,0.0893 0.07421,0.22263 0.02335,0.182704 0.0893,0.446516 0.02283,0.09132 0.06647,0.176587 0.0893,0.26791 0.02196,0.08783 0.01864,0.181193 0.04465,0.26791 0.01913,0.06375 0.06227,0.117781 0.0893,0.178606 0.06511,0.146488 0.119071,0.297678 0.178607,0.446517 0.02977,0.07442 0.07711,0.144038 0.0893,0.223258 0.01811,0.117686 -0.0085,0.238444 0,0.357213 0.0064,0.09031 0.02977,0.178606 0.04465,0.267909 0.01488,0.0893 0.02846,0.178835 0.04465,0.26791 0.01358,0.07467 0.03524,0.147951 0.04465,0.223258 0.01108,0.08861 0,0.178607 0,0.26791 0,0.01488 -0.0047,0.03053 0,0.04465 0.05796,0.173893 0.04465,0.0042 0.04465,0.178607 0,0.342329 0,0.684658 0,1.026987 0,0.104187 0,0.208374 0,0.312562 0,0.05882 0,0.03048 0,0.0893 0,0.01488 0.01353,0.05085 0,0.04465 C 27.121849,27.10046 27.064279,27.044324 27,27"
         style="fill:none;stroke:#0000ff;stroke-width:1.35580075;stroke-linecap:butt;stroke-linejoin:miter;stroke-miterlimit:4;stroke-opacity:1;stroke-dasharray:none" />
    </g>
  </g>
</svg>
