<?xml version="1.0" encoding="UTF-8" standalone="no"?>
<!-- Created with Inkscape (http://www.inkscape.org/) -->

<svg
   xmlns:dc="http://purl.org/dc/elements/1.1/"
   xmlns:cc="http://creativecommons.org/ns#"
   xmlns:rdf="http://www.w3.org/1999/02/22-rdf-syntax-ns#"
   xmlns:svg="http://www.w3.org/2000/svg"
   xmlns="http://www.w3.org/2000/svg"
   xmlns:sodipodi="http://sodipodi.sourceforge.net/DTD/sodipodi-0.dtd"
   xmlns:inkscape="http://www.inkscape.org/namespaces/inkscape"
   width="48"
   height="48"
   id="svg2985"
   version="1.1"
   inkscape:version="0.48.4 r9939"
   sodipodi:docname="icon_48x48.svg"
   inkscape:export-filename="/home/adam/workspace/TailPlot/src/main/resources/plotter/tail/icon_48x48.png"
   inkscape:export-xdpi="90"
   inkscape:export-ydpi="90">
  <defs
     id="defs2987" />
  <sodipodi:namedview
     id="base"
     pagecolor="#ffffff"
     bordercolor="#666666"
     borderopacity="1.0"
     inkscape:pageopacity="0.0"
     inkscape:pageshadow="2"
     inkscape:zoom="15.836083"
     inkscape:cx="16.472709"
     inkscape:cy="24.014878"
     inkscape:current-layer="layer1"
     showgrid="true"
     inkscape:grid-bbox="true"
     inkscape:document-units="px"
     inkscape:window-width="1920"
     inkscape:window-height="1006"
     inkscape:window-x="-4"
     inkscape:window-y="-4"
     inkscape:window-maximized="1"
     showguides="false">
    <inkscape:grid
       type="xygrid"
       id="grid2993"
       empspacing="5"
       visible="true"
       enabled="true"
       snapvisiblegridlinesonly="true" />
  </sodipodi:namedview>
  <metadata
     id="metadata2990">
    <rdf:RDF>
      <cc:Work
         rdf:about="">
        <dc:format>image/svg+xml</dc:format>
        <dc:type
           rdf:resource="http://purl.org/dc/dcmitype/StillImage" />
        <dc:title></dc:title>
      </cc:Work>
    </rdf:RDF>
  </metadata>
  <g
     id="layer1"
     inkscape:label="Layer 1"
     inkscape:groupmode="layer"
     transform="translate(0,16)">
    <rect
       style="fill:#404040;fill-opacity:1;fill-rule:evenodd;stroke:none;stroke-width:1;stroke-miterlimit:4;stroke-dasharray:none"
       id="rect3784"
       width="48"
       height="48"
       x="0"
       y="-16" />
    <path
       style="fill:none;stroke:#ffffff;stroke-width:1;stroke-linecap:square;stroke-linejoin:miter;stroke-miterlimit:4;stroke-opacity:1;stroke-dasharray:none"
       d="m 8.5,25.834244 c 0,2.775512 0,2.775512 0,2.775512"
       id="path3790"
       inkscape:connector-curvature="0" />
    <path
       style="fill:none;stroke:#ffffff;stroke-width:1;stroke-linecap:square;stroke-linejoin:miter;stroke-miterlimit:4;stroke-opacity:1;stroke-dasharray:none"
       d="m 26.5,25.884098 c 0,2.731804 0,2.731804 0,2.731804"
       id="path3790-5"
       inkscape:connector-curvature="0" />
    <path
       style="fill:none;stroke:#ffffff;stroke-width:1;stroke-linecap:square;stroke-linejoin:miter;stroke-miterlimit:4;stroke-opacity:1;stroke-dasharray:none"
       d="m 44.5,25.884098 c 0,2.731804 0,2.731804 0,2.731804"
       id="path3790-9"
       inkscape:connector-curvature="0" />
    <path
       style="fill:none;stroke:#ffffff;stroke-width:1;stroke-linecap:square;stroke-linejoin:miter;stroke-miterlimit:4;stroke-opacity:1;stroke-dasharray:none"
       d="m 9.0895145,25.513392 -3.6029062,0"
       id="path3817"
       inkscape:connector-curvature="0" />
    <path
       style="fill:none;stroke:#ffffff;stroke-width:1;stroke-linecap:square;stroke-linejoin:miter;stroke-miterlimit:4;stroke-opacity:1;stroke-dasharray:none"
       d="M 9.5161975,7.5 5.5,7.5"
       id="path3817-7"
       inkscape:connector-curvature="0" />
    <path
       style="fill:none;stroke:#ffffff;stroke-width:1;stroke-linecap:square;stroke-linejoin:miter;stroke-miterlimit:4;stroke-opacity:1;stroke-dasharray:none"
       d="M 9.5161975,-10.5 5.5,-10.5"
       id="path3817-7-2"
       inkscape:connector-curvature="0" />
    <rect
       style="fill:#000000;fill-opacity:1;stroke:#ffffff;stroke-width:1;stroke-miterlimit:4;stroke-opacity:1;stroke-dasharray:none"
       id="rect3786"
       width="41.011829"
       height="43.044533"
       x="8.4773979"
       y="-17.533897"
       ry="0" />
    <path
       style="fill:none;stroke:#ff0000;stroke-width:1;stroke-linecap:butt;stroke-linejoin:miter;stroke-miterlimit:4;stroke-opacity:1;stroke-dasharray:none"
       d="m 8.973,-3.9076322 c 0.3374423,0.096037 0.6696046,0.2137722 1.012327,0.2881129 0.102979,0.022337 0.210612,0 0.315918,0 0.126367,0 0.252735,0 0.379102,0 0.302121,0 0.529985,0.02459 0.821387,-0.064104 0.09022,-0.027459 0.166664,-0.089397 0.252735,-0.1282066 0.103643,-0.046734 0.214474,-0.076746 0.315918,-0.1282067 0.06792,-0.034455 0.125156,-0.087374 0.189551,-0.1282066 0.10414,-0.066036 0.21898,-0.1158171 0.315918,-0.192311 0.09404,-0.07421 0.150573,-0.1942244 0.252735,-0.256414 0.399586,-0.2432418 0.378027,-0.053238 0.821387,-0.128207 0.315384,-0.12799 0.299622,-0.1441603 0.631837,-0.1923105 0.0834,-0.012088 0.168489,0 0.252734,0 0.147429,0 0.294857,0 0.442286,0 0.105305,0 0.210612,0 0.315918,0 0.08425,0 0.16849,0 0.252735,0 0.137046,0 0.208966,-0.023705 0.315918,0.1282066 0.06592,0.093635 0.08424,0.2136783 0.126367,0.3205175 0.183312,0.4649515 0.09521,0.2098756 0.252735,0.769242 0.254603,0.9040872 0.268106,0.875979 0.442285,1.794898 0.04838,0.2552734 0.06958,0.5157553 0.126363,0.769242 0.04873,0.21753909 0.141852,0.42326151 0.189551,0.6410361 0.03572,0.16302658 0.113259,1.04306751 0.126363,1.15386277 0.110344,0.93293983 0.173245,1.40131193 0.442286,2.37182963 0.177,0.638495 0.263486,0.6120449 0.568652,1.1538627 0.0701,0.1244554 0.116868,0.261708 0.189551,0.3846214 0.05418,0.091608 0.129165,0.1688869 0.189551,0.2564133 0.0871,0.1262356 0.166287,0.2579337 0.252736,0.3846214 0.103128,0.1511295 0.21917,0.2933121 0.315918,0.448724 0.376746,0.6052013 0.475674,0.9355585 0.947754,1.4743802 0.14874,0.1697697 0.328014,0.3102339 0.505469,0.4487254 0.09734,0.075959 0.210613,0.1282024 0.315918,0.1923107 0.105307,0.064101 0.206076,0.1365865 0.315918,0.1923093 0.256624,0.1301835 0.600259,0.2655741 0.884572,0.3205173 0.29259,0.05655 0.590291,0.081559 0.88457,0.1282024 0.379725,0.060196 0.757065,0.1355815 1.137307,0.1923107 0.335987,0.050132 0.673755,0.087157 1.010938,0.1282023 0.189359,0.023056 0.378357,0.051238 0.568652,0.064101 0.02084,0.00141 0.752532,-0.00144 0.758205,0 0.13706,0.034771 0.252734,0.1282024 0.379101,0.1923107 0.273796,0.064101 0.543221,0.1519937 0.821387,0.1923107 0.313437,0.045424 0.632706,0.032144 0.947756,0.064101 0.317132,0.032173 0.629979,0.1034089 0.947754,0.1282023 0.668883,0.0522 0.578209,-0.0668 1.137305,0.064101 0.129787,0.030392 0.249311,0.097824 0.379103,0.1282024 0.145111,0.033981 0.298388,0.025167 0.442285,0.064101 0.118679,0.032115 0.818708,0.3141229 0.947754,0.3846209 0.25884,0.14141 0.443817,0.290279 0.631837,0.512828 0.04941,0.0585 0.08425,0.128203 0.126363,0.192311 0.04213,0.0641 0.09645,0.121498 0.126363,0.192311 0.04934,0.116803 0.11517,0.561497 0.126363,0.641034 0.02127,0.151077 0.11807,0.963574 0.126362,1.08976 0.01541,0.234526 0,0.470092 0,0.705138 0,0.256415 0,0.512828 0,0.769243 0,0.10684 -0.02284,0.216222 0,0.320517 0.20762,0.947895 0.07002,-0.514587 0.189551,0.576932 0.0093,0.08495 -0.01189,0.171801 0,0.256413 0.0095,0.06689 0.04213,0.128203 0.06318,0.192311 0.02105,0.0641 0.04212,0.128202 0.06318,0.192311 0.01231,0.03756 0.07988,0.273356 0.126363,0.320517 0.01489,0.0151 0.04212,0 0.06318,0 0.02106,0 0.04213,0 0.06318,0 0.126363,0 0.254205,-0.0195 0.379103,0 0.151544,0.02366 0.294856,0.08548 0.442285,0.128202 1.060627,0.307449 -0.258595,-0.08199 1.010938,0.320518 0.352832,0.111865 0.485805,0.12546 0.821388,0.256415 0.149706,0.05842 0.290893,0.138553 0.442286,0.19231 0.862422,0.306242 1.752421,0.500356 2.653713,0.641035 0.147193,0.02297 0.295092,0.04113 0.442285,0.0641 0.126617,0.01977 0.251189,0.05689 0.379102,0.0641 0.252345,0.01421 0.506343,-0.02129 0.758203,0 1.986745,0.167973 -0.132829,0.04829 1.20049,0.256414 0.124891,0.0195 0.252734,0 0.379102,0 0.105307,0 0.210611,0 0.315918,0 0.105307,0 0.210612,0 0.315918,0 0.04213,0 0.09025,-0.02199 0.126363,0 0.07662,0.04664 0.107897,0.155492 0.189551,0.19231 0.117066,0.05279 0.253058,0.04086 0.379103,0.0641 0.10566,0.01949 0.211733,0.03767 0.315918,0.0641 0.06461,0.01639 0.123858,0.05299 0.189551,0.0641 0.145422,0.02459 0.296862,-0.02459 0.442285,0 0.07886,0.01335 0.273313,0.17502 0.315918,0.192311 0.12199,0.0495 0.762585,0.206909 0.884571,0.256414 0.07051,0.02861 0.124439,0.08857 0.189552,0.128203 0.458117,0.232393 -0.0999,-0.06758 0.189549,0.128202 0.03918,0.0265 0.08718,0.0376 0.126363,0.0641 0.123264,0.08338 0.03123,0.03094 0.06318,0.128203 0.0149,0.04532 0.0483,0.08288 0.06318,0.128202 0.01189,0.03616 0,0.150188 0,0.192311 0,0.149574 0,0.299149 0,0.448724 0,0.08532 -0.02046,0.258259 0,0.320517 0.0067,0.02027 0.04435,-0.0096 0.06318,0 0.02664,0.0135 0.04213,0.04274 0.06318,0.0641 0.04213,0.04274 0.08425,0.08548 0.126363,0.128202 0.04213,0.04274 0.0787,0.09195 0.126363,0.128203 0.07535,0.05734 0.177383,0.07088 0.252734,0.128202 0.04756,0.03619 0.280249,0.272266 0.315918,0.320518 0.02826,0.03822 0.03706,0.08845 0.06318,0.128202 0.01653,0.02514 0.04987,0.03708 0.06318,0.0641 0.0095,0.01911 -0.0095,0.04499 0,0.0641 0.06389,0.129653 0.146629,0.02056 0.189552,0.0641 0.02979,0.03022 -0.01763,0.0894 0,0.128203 0.05653,0.124332 0.128754,0.240544 0.193094,0.360767"
       id="path3855"
       inkscape:connector-curvature="0" />
    <path
       style="fill:none;stroke:#00ff00;stroke-width:1;stroke-linecap:butt;stroke-linejoin:miter;stroke-miterlimit:4;stroke-opacity:1;stroke-dasharray:none"
       d="m 9.339,1.8349142 c 0.097436,0.2331675 0.092233,0.5480615 0.2923108,0.6995024 0.1688092,0.1277717 0.4212252,0 0.6318372,0 0.421224,0 0.842448,0 1.263673,0 1.937632,0 3.875263,0 5.812895,0 2.569468,0 5.138937,0 7.708404,0 0.926695,0 1.853387,0 2.780082,0 0.294856,0 0.589713,0 0.88457,0 0.252735,0 0.506608,-0.024305 0.758204,0 0.341577,0.033005 0.76007,0.183964 1.074121,0.3205174 0.129858,0.056464 0.248687,0.1371751 0.379103,0.1923107 0.0083,0.00345 0.754029,0.2542958 0.758204,0.2564133 0.135844,0.068911 0.252734,0.1709427 0.379101,0.2564148 0.197706,0.1337152 0.521216,0.3364931 0.69502,0.512828 0.0537,0.054482 0.07893,0.1321504 0.126363,0.1923107 0.03722,0.047189 0.09332,0.077926 0.126363,0.1282024 0.05224,0.079506 0.08425,0.1709427 0.126363,0.2564147 0.185937,0.3772882 0.09658,0.1657572 0.252734,0.6410347 0.08425,0.2564133 0.161693,0.5152299 0.252735,0.7692414 0.03876,0.1081465 0.09051,0.211353 0.126363,0.3205173 0.05492,0.1671613 0.08425,0.3418854 0.126362,0.5128281 0.154092,0.6253389 -0.03406,-0.1555038 0.126363,0.5769321 0.01883,0.086009 0.04435,0.1704101 0.06318,0.2564133 0.02329,0.1063663 0.02547,0.2184996 0.06318,0.3205174 0.216288,0.5851655 0.05284,-0.095585 0.189551,0.3205173 0.04048,0.1232351 0.06552,0.3252564 0.126362,0.4487255 0.05492,0.1114484 0.147583,0.2034239 0.189552,0.3205173 0.04378,0.122144 0.01387,0.2646438 0.06318,0.3846214 0.05841,0.1422286 0.184815,0.2468018 0.252735,0.38462 0.1001,0.2031166 0.12908,0.4263296 0.189551,0.6410366 0.0183,0.06498 0.02892,0.134361 0.06318,0.192309 0.03065,0.05183 0.08425,0.08548 0.126362,0.128202 0.04213,0.04274 0.0787,0.09194 0.126363,0.128203 0.03767,0.02867 0.08598,0.03952 0.126363,0.0641 0.06512,0.03964 0.119754,0.09785 0.189551,0.128202 0.07982,0.0347 0.175064,0.02471 0.252734,0.0641 0.05328,0.02703 0.07309,0.101184 0.126363,0.128203 0.0014,7.42e-4 0.495388,0.125288 0.505469,0.128202 0.06404,0.01856 0.123278,0.05738 0.18955,0.0641 0.146696,0.01489 0.294858,0 0.442286,0 0.421224,0 0.842449,0 1.263672,0 0.105307,0 0.210613,0 0.315918,0 0.04213,0 0.08451,-0.0047 0.126363,0 0.296029,0.03336 0.590772,0.07853 0.88457,0.128202 0.10593,0.01792 0.20906,0.05326 0.315918,0.0641 0.104784,0.01062 0.211135,-0.01062 0.315918,0 0.305986,0.03104 0.594456,0.165847 0.884572,0.256414 1.418696,0.411243 -0.341668,-0.11554 0.758204,0.256414 0.359475,0.121569 0.138037,0.0047 0.442285,0.128202 0.04373,0.01774 0.08264,0.04636 0.126363,0.0641 0.06184,0.0251 0.132448,0.02935 0.189551,0.0641 0.05108,0.0311 0.06986,0.109094 0.126363,0.128203 0.07992,0.02703 0.169337,-0.01206 0.252735,0 0.06593,0.0096 0.125514,0.04554 0.189551,0.0641 0.0835,0.02421 0.169559,0.03879 0.252734,0.0641 0.12758,0.03883 0.255427,0.07801 0.379103,0.128202 0.08745,0.03549 0.166663,0.0894 0.252734,0.128203 0.03305,0.0149 0.410734,0.173087 0.505469,0.19231 0.04131,0.0083 0.08506,-0.0083 0.126362,0 0.0653,0.01321 0.124241,0.05085 0.189552,0.0641 0.0413,0.0083 0.08425,0 0.126362,0 0.02106,0 0.04435,-0.0096 0.06318,0 0.05328,0.02703 0.06986,0.109094 0.126362,0.128202 0.03996,0.0135 0.0855,-0.01034 0.126363,0 0.04569,0.01163 0.08067,0.05252 0.126363,0.0641 0.04087,0.01034 0.0864,-0.0135 0.126362,0 0.0133,0.0045 0.177979,0.174698 0.189552,0.192311 0.02612,0.03975 0.02989,0.09442 0.06318,0.128202 0.0041,0.0042 0.240965,0.120249 0.252734,0.128203 0.02478,0.01677 0.03654,0.05059 0.06318,0.0641 0.01883,0.0096 0.04213,0 0.06318,0 0.02105,0 0.04212,0 0.06318,0 0.02106,0 0.07507,0.01764 0.06318,0 -0.161486,-0.23995 -0.351213,-0.4592 -0.526878,-0.688846"
       id="path3857"
       inkscape:connector-curvature="0" />
    <path
       style="fill:none;stroke:#0000ff;stroke-width:1;stroke-linecap:butt;stroke-linejoin:miter;stroke-miterlimit:4;stroke-opacity:1;stroke-dasharray:none"
       d="m 9.1728108,-10.486161 c 0.2742587,0.03147 0.5472463,0.07794 0.8227762,0.09439 0.252298,0.01506 0.505469,0 0.758204,0 0.589714,0 1.179428,0 1.769142,0 1.368979,0 2.737958,0 4.106937,0 0.315918,0 0.631836,0 0.947755,0 0.147428,0 0.295111,-0.0088 0.442285,0 0.211297,0.01261 0.421624,0.03901 0.631836,0.0641 0.147905,0.01765 0.297174,0.03013 0.442286,0.0641 0.365166,0.0855 0.456683,0.18837 0.821387,0.3205173 0.144395,0.05232 0.297891,0.07589 0.442286,0.1282073 0.151053,0.05473 0.289333,0.1433076 0.442286,0.1923116 0.248419,0.07959 0.514278,0.09951 0.758203,0.1923106 0.264575,0.1006598 0.501333,0.2651747 0.758203,0.3846211 0.248899,0.1157396 0.507115,0.2097587 0.758205,0.3205175 0.139579,0.061569 0.752305,0.3612587 1.010938,0.4487246 0.14546,0.049192 0.299177,0.072365 0.442285,0.1282066 0.149163,0.058205 0.906169,0.4795197 0.947754,0.5128281 0.346519,0.3515617 0.804856,0.8416674 1.20049,1.1538629 0.179824,0.1418998 0.386404,0.2459439 0.568653,0.3846211 0.166796,0.1269189 0.27771,0.3188571 0.442286,0.4487245 0.09694,0.076493 0.222677,0.1112259 0.315918,0.1923105 0.20353,0.1769945 0.379102,0.384621 0.568653,0.5769314 0.358041,0.3632532 0.710065,0.7327145 1.074121,1.0897596 0.267903,0.262743 0.575231,0.4854456 0.821387,0.7692419 0.219995,0.2536325 0.375097,0.5584216 0.568654,0.8333456 0.219255,0.311427 0.406913,0.5051567 0.568653,0.8333454 0.05073,0.1029208 0.07205,0.2194988 0.126363,0.3205175 0.07272,0.13527136 0.181263,0.24866314 0.252734,0.38462102 0.09761,0.18568996 0.151041,0.39350997 0.252735,0.57693121 0.08882,0.160207 0.224629,0.28995122 0.315918,0.44872401 0.05715,0.0993891 0.0701,0.22060997 0.126363,0.32051736 0.02956,0.0524725 0.08425,0.0854778 0.126363,0.12820235 0.02105,0.0213623 0.04987,0.0370681 0.06318,0.0641012 0.0095,0.0191083 0,0.0427389 0,0.0641012 0.126363,0.17094265 0.25579,0.33960275 0.379102,0.51282815 0.323528,0.4544839 0.639663,0.9917436 1.010939,1.4102776 0.332874,0.3752452 0.267225,0.2143621 0.505469,0.5769307 0.362889,0.5522578 0.655753,1.1382918 0.947754,1.7307948 0.08425,0.1709427 0.17853,0.3371607 0.252734,0.5128281 0.05247,0.1242113 0.08084,0.2576149 0.126363,0.3846214 0.03876,0.1081465 0.08425,0.2136773 0.126363,0.3205173 0.04212,0.1068401 0.07565,0.2175966 0.126362,0.3205174 0.405186,0.822169 0.238823,0.3172829 0.568654,1.1538628 0.03331,0.084502 0.172624,0.5036543 0.189551,0.6410347 0.01047,0.084817 -0.02315,0.1742317 0,0.2564147 0.02086,0.074079 0.09645,0.1214979 0.126363,0.1923093 0.04862,0.115095 0.09638,0.4755202 0.126362,0.5769321 0.238969,0.8081595 0.01997,-0.2541019 0.252734,0.7692405 0.128995,0.567098 0.01302,0.236416 0.06318,0.897448 0.04718,0.622168 0.04539,0.04069 0.189552,0.576933 0.03918,0.145768 0.04213,0.299149 0.06318,0.448724 0.04213,0.149574 0.08128,0.300043 0.126363,0.448724 0.09793,0.322914 0.203915,0.64338 0.315918,0.961553 0.03815,0.108362 0.07129,0.219928 0.126362,0.320517 0.05114,0.09339 0.150441,0.157217 0.189552,0.256414 0.04757,0.120679 0.03211,0.258526 0.06318,0.384621 0.05333,0.216427 0.120023,0.429396 0.18955,0.641035 0.03196,0.09729 0.318667,0.864938 0.379102,1.08976 0.02826,0.105117 0.03713,0.214816 0.06318,0.320517 0.01615,0.06555 0.05012,0.126049 0.06318,0.192311 0.0082,0.04191 -0.01019,0.08674 0,0.128202 0.01146,0.04636 0.04829,0.08288 0.06318,0.128203 0.10501,0.319616 0.03304,0.262296 0.126363,0.641034 0.03231,0.131103 0.09406,0.253515 0.126362,0.384622 0.03108,0.126092 0.02638,0.260127 0.06318,0.384621 0.02707,0.09152 0.08811,0.169091 0.126362,0.256414 0.09213,0.210303 0.16849,0.427357 0.252736,0.641036 0.04213,0.10684 0.109113,0.206786 0.126362,0.320517 0.02563,0.168954 -0.01203,0.342319 0,0.512828 0.0091,0.129652 0.04213,0.256413 0.06318,0.38462 0.02106,0.128202 0.04027,0.256742 0.06318,0.384621 0.01922,0.107199 0.04987,0.212404 0.06318,0.320518 0.01568,0.127212 0,0.256415 0,0.384621 0,0.02136 -0.0067,0.04383 0,0.0641 0.08201,0.249648 0.06318,0.006 0.06318,0.256415 0,0.49146 0,0.98292 0,1.47438 0,0.149575 0,0.29915 0,0.448726 0,0.08444 0,0.04376 0,0.128202 0,0.02136 0.01915,0.073 0,0.0641 -0.100359,-0.04665 -0.181822,-0.127242 -0.272779,-0.190875"
       id="path3859"
       inkscape:connector-curvature="0" />
  </g>
</svg>
