<?xml version="1.0" encoding="UTF-8" standalone="no"?>
<!-- Created with Inkscape (http://www.inkscape.org/) -->

<svg
   xmlns:dc="http://purl.org/dc/elements/1.1/"
   xmlns:cc="http://creativecommons.org/ns#"
   xmlns:rdf="http://www.w3.org/1999/02/22-rdf-syntax-ns#"
   xmlns:svg="http://www.w3.org/2000/svg"
   xmlns="http://www.w3.org/2000/svg"
   xmlns:sodipodi="http://sodipodi.sourceforge.net/DTD/sodipodi-0.dtd"
   xmlns:inkscape="http://www.inkscape.org/namespaces/inkscape"
   width="16"
   height="16"
   id="svg2985"
   version="1.1"
   inkscape:version="0.48.4 r9939"
   sodipodi:docname="icon_16x16.svg"
   inkscape:export-filename="/home/adam/workspace/TailPlot/icon_16x16.png"
   inkscape:export-xdpi="90"
   inkscape:export-ydpi="90">
  <defs
     id="defs2987" />
  <sodipodi:namedview
     id="base"
     pagecolor="#ffffff"
     bordercolor="#666666"
     borderopacity="1.0"
     inkscape:pageopacity="0.0"
     inkscape:pageshadow="2"
     inkscape:zoom="31.672167"
     inkscape:cx="3.1593351"
     inkscape:cy="11.305008"
     inkscape:current-layer="layer1"
     showgrid="true"
     inkscape:grid-bbox="true"
     inkscape:document-units="px"
     inkscape:window-width="1920"
     inkscape:window-height="1006"
     inkscape:window-x="-4"
     inkscape:window-y="-4"
     inkscape:window-maximized="1"
     showguides="false">
    <inkscape:grid
       type="xygrid"
       id="grid2993"
       empspacing="5"
       visible="true"
       enabled="true"
       snapvisiblegridlinesonly="true" />
  </sodipodi:namedview>
  <metadata
     id="metadata2990">
    <rdf:RDF>
      <cc:Work
         rdf:about="">
        <dc:format>image/svg+xml</dc:format>
        <dc:type
           rdf:resource="http://purl.org/dc/dcmitype/StillImage" />
        <dc:title></dc:title>
      </cc:Work>
    </rdf:RDF>
  </metadata>
  <g
     id="layer1"
     inkscape:label="Layer 1"
     inkscape:groupmode="layer"
     transform="translate(0,-16)">
    <rect
       style="fill:#404040;fill-opacity:1;fill-rule:evenodd;stroke:none"
       id="rect3784"
       width="16"
       height="16"
       x="0"
       y="15.999999" />
    <path
       style="fill:none;stroke:#ffffff;stroke-width:1;stroke-linecap:square;stroke-linejoin:miter;stroke-miterlimit:4;stroke-opacity:1;stroke-dasharray:none"
       d="M 3.5,29.32011 C 3.5,30.5 3.5,30.5 3.5,30.5"
       id="path3790"
       inkscape:connector-curvature="0" />
    <path
       style="fill:none;stroke:#ffffff;stroke-width:1;stroke-linecap:square;stroke-linejoin:miter;stroke-miterlimit:4;stroke-opacity:1;stroke-dasharray:none"
       d="M 8.5,29.32011 C 8.5,30.5 8.5,30.5 8.5,30.5"
       id="path3790-5"
       inkscape:connector-curvature="0" />
    <path
       style="fill:none;stroke:#ffffff;stroke-width:1;stroke-linecap:square;stroke-linejoin:miter;stroke-miterlimit:4;stroke-opacity:1;stroke-dasharray:none"
       d="M 13.5,29.32011 C 13.5,30.5 13.5,30.5 13.5,30.5"
       id="path3790-9"
       inkscape:connector-curvature="0" />
    <path
       style="fill:none;stroke:#ffffff;stroke-width:1.0000813;stroke-linecap:square;stroke-linejoin:miter;stroke-miterlimit:4;stroke-opacity:1;stroke-dasharray:none"
       d="m 3.8339187,29.5 -1.3338374,0"
       id="path3817"
       inkscape:connector-curvature="0" />
    <path
       style="fill:none;stroke:#ffffff;stroke-width:1;stroke-linecap:square;stroke-linejoin:miter;stroke-miterlimit:4;stroke-opacity:1;stroke-dasharray:none"
       d="M 3.8336206,23.5 2.5,23.5"
       id="path3817-7"
       inkscape:connector-curvature="0" />
    <path
       style="fill:none;stroke:#ffffff;stroke-width:1;stroke-linecap:square;stroke-linejoin:miter;stroke-miterlimit:4;stroke-opacity:1;stroke-dasharray:none"
       d="M 3.8335359,17.5 2.5,17.5"
       id="path3817-7-2"
       inkscape:connector-curvature="0" />
    <rect
       style="fill:#000000;fill-opacity:1;stroke:#ffffff;stroke-width:1;stroke-miterlimit:4;stroke-opacity:1;stroke-dasharray:none"
       id="rect3786"
       width="14.499712"
       height="14.499712"
       x="3.5"
       y="15.000288"
       ry="0" />
    <path
       style="fill:none;stroke:#ff0000;stroke-width:1;stroke-linecap:butt;stroke-linejoin:miter;stroke-miterlimit:4;stroke-opacity:1;stroke-dasharray:none"
       d="m 3.9475456,19.8395 c 0.043652,0 0.087304,0 0.1309558,0 0.1043637,0 0.1830763,0.0084 0.2837375,-0.02181 0.031164,-0.0093 0.057572,-0.03042 0.087304,-0.04362 0.035802,-0.0159 0.074087,-0.02611 0.1091298,-0.04362 0.023462,-0.01172 0.043233,-0.02973 0.065478,-0.04362 0.035974,-0.02247 0.075644,-0.03941 0.1091299,-0.06543 0.032486,-0.02525 0.052013,-0.06609 0.087304,-0.08725 0.1380317,-0.08276 0.1305847,-0.01811 0.2837376,-0.04362 0.1089451,-0.04355 0.1035002,-0.04905 0.2182596,-0.06543 0.028809,-0.0041 0.058203,0 0.087304,0 0.050927,0 0.1018545,0 0.1527817,0 0.036376,0 0.072753,0 0.1091299,0 0.029101,0 0.058202,0 0.087304,0 0.047341,0 0.072185,-0.0081 0.1091299,0.04362 0.022772,0.03186 0.029101,0.0727 0.043652,0.109056 0.063323,0.158201 0.032889,0.07141 0.087304,0.261737 0.087949,0.307617 0.092613,0.298053 0.1527816,0.610717 0.016712,0.08686 0.024035,0.175487 0.04365,0.261737 0.016834,0.07402 0.049001,0.144015 0.065478,0.218113 0.012338,0.05547 0.039124,0.354906 0.04365,0.392605 0.038117,0.317434 0.059845,0.476799 0.1527821,0.80702 0.061142,0.217249 0.091018,0.208249 0.1964334,0.392604 0.024216,0.04235 0.040371,0.08905 0.065478,0.130868 0.018716,0.03117 0.044618,0.05746 0.065478,0.08724 0.030086,0.04295 0.057442,0.08776 0.087304,0.130868 0.035624,0.05142 0.07571,0.0998 0.1091298,0.15268 0.130142,0.205921 0.1643154,0.318325 0.3273893,0.501661 0.05138,0.05776 0.1133081,0.105557 0.1746078,0.152679 0.033625,0.02585 0.072753,0.04362 0.1091297,0.06543 0.036377,0.02181 0.071186,0.04647 0.1091298,0.06543 0.088647,0.04429 0.2073514,0.09036 0.3055637,0.109057 0.1010713,0.01924 0.2039082,0.02775 0.3055632,0.04362 0.131171,0.02048 0.2615184,0.04613 0.3928678,0.06543 0.1160625,0.01706 0.2327399,0.02966 0.3492155,0.04362 0.065411,0.0078 0.1306983,0.01743 0.1964334,0.02181 0.0072,4.79e-4 0.2599522,-4.89e-4 0.2619119,0 0.047346,0.01183 0.087304,0.04362 0.1309554,0.06543 0.09458,0.02181 0.1876486,0.05172 0.2837375,0.06543 0.1082728,0.01545 0.2185598,0.01094 0.3273898,0.02181 0.109549,0.01095 0.217618,0.03519 0.327389,0.04362 0.231057,0.01776 0.199735,-0.02273 0.392868,0.02181 0.04483,0.01034 0.08612,0.03329 0.130956,0.04362 0.05013,0.01156 0.103074,0.0086 0.152781,0.02181 0.041,0.01093 0.282812,0.106881 0.327389,0.130868 0.08941,0.04811 0.153311,0.09877 0.218261,0.174491 0.01707,0.01991 0.0291,0.04362 0.04365,0.06543 0.01455,0.02181 0.03332,0.04134 0.04365,0.06543 0.01704,0.03974 0.03978,0.191051 0.04365,0.218114 0.0073,0.0514 0.04079,0.327857 0.04365,0.370793 0.0053,0.0798 0,0.159949 0,0.239924 0,0.08725 0,0.174491 0,0.261737 0,0.03635 -0.0079,0.07357 0,0.109056 0.07172,0.322523 0.02419,-0.175089 0.06548,0.196303 0.0032,0.0289 -0.0041,0.05846 0,0.08724 0.0033,0.02276 0.01455,0.04362 0.02183,0.06543 0.0073,0.02181 0.01455,0.04362 0.02182,0.06543 0.0043,0.01278 0.02759,0.09301 0.04365,0.109057 0.0051,0.0051 0.01455,0 0.02182,0 0.0073,0 0.01455,0 0.02183,0 0.04365,0 0.08781,-0.0066 0.130956,0 0.05235,0.008 0.101854,0.02908 0.152781,0.04362 0.36638,0.10461 -0.08933,-0.0279 0.349216,0.109057 0.121881,0.03806 0.167815,0.04269 0.283737,0.08724 0.05171,0.01988 0.100486,0.04714 0.152783,0.06543 0.297912,0.1042 0.605351,0.170247 0.91669,0.218114 0.05085,0.0078 0.101936,0.014 0.152782,0.02181 0.04374,0.0067 0.08677,0.01936 0.130956,0.02181 0.08717,0.0048 0.174909,-0.0072 0.261911,0 0.686295,0.05715 -0.04588,0.01643 0.414693,0.08724 0.04314,0.0066 0.0873,0 0.130956,0 0.03638,0 0.07275,0 0.10913,0 0.03638,0 0.07275,0 0.10913,0 0.01455,0 0.03118,-0.0075 0.04365,0 0.02647,0.01587 0.03727,0.05291 0.06548,0.06543 0.04044,0.01796 0.08742,0.0139 0.130956,0.02181 0.0365,0.0066 0.07314,0.01282 0.10913,0.02181 0.02232,0.0056 0.04279,0.01803 0.06548,0.02181 0.05023,0.0084 0.102547,-0.0084 0.152782,0 0.02724,0.0045 0.09441,0.05955 0.109129,0.06543 0.04214,0.01684 0.263426,0.0704 0.305564,0.08725 0.02436,0.0097 0.04299,0.03013 0.06548,0.04362 0.158251,0.07907 -0.03451,-0.02299 0.06548,0.04362 0.01354,0.009 0.03012,0.01279 0.04365,0.02181 0.04258,0.02837 0.01079,0.01053 0.02182,0.04362 0.0051,0.01542 0.01668,0.0282 0.02182,0.04362 0.0041,0.0123 0,0.0511 0,0.06543 0,0.05089 0,0.101786 0,0.152679 0,0.02903 -0.0071,0.08787 0,0.109057 0.0023,0.0069 0.01532,-0.0033 0.02182,0 0.0092,0.0046 0.01455,0.01454 0.02183,0.02181 0.01455,0.01454 0.0291,0.02908 0.04365,0.04362 0.01455,0.01454 0.02719,0.03129 0.04365,0.04362 0.02603,0.01951 0.06128,0.02412 0.0873,0.04362 0.01643,0.01231 0.09681,0.09264 0.10913,0.109056 0.0098,0.013 0.0128,0.03009 0.02182,0.04362 0.0057,0.0086 0.01722,0.01262 0.02182,0.02181 0.0033,0.0065 -0.0033,0.01531 0,0.02181 0.02207,0.04412 0.05065,0.007 0.06548,0.02181 0.01029,0.01028 -0.0061,0.03042 0,0.04362 0.01953,0.0423 0.04448,0.08185 0.0667,0.122752"
       id="path3855"
       inkscape:connector-curvature="0"
       sodipodi:nodetypes="cscccccsccssssccscsccsscccsccsccccccccccccccccscccssccccccssccccccccccsssccccccccccccssscccsccccccccc" />
    <path
       style="fill:none;stroke:#00ff00;stroke-width:1;stroke-linecap:butt;stroke-linejoin:miter;stroke-miterlimit:4;stroke-opacity:1;stroke-dasharray:none"
       d="m 4.003,21.534176 c 0.1455065,0 0.2910129,0 0.4365193,0 0.6693296,0 1.338659,0 2.007989,0 0.887589,0 1.7751785,0 2.6627675,0 0.3201145,0 0.6402282,0 0.9603422,0 0.101855,0 0.203709,0 0.305563,0 0.08731,0 0.175002,-0.0083 0.261912,0 0.117994,0.01123 0.262556,0.06259 0.371041,0.109057 0.04486,0.01921 0.08591,0.04667 0.130956,0.06543 0.0029,0.0012 0.26047,0.08652 0.261912,0.08724 0.04693,0.02345 0.0873,0.05816 0.130956,0.08725 0.06829,0.0455 0.180047,0.114492 0.240085,0.174491 0.01855,0.01854 0.02727,0.04496 0.04365,0.06543 0.01286,0.01606 0.03224,0.02651 0.04365,0.04362 0.01805,0.02705 0.0291,0.05816 0.04365,0.08725 0.06423,0.128373 0.03336,0.0564 0.0873,0.218113 0.0291,0.08725 0.05586,0.175308 0.0873,0.261736 0.01339,0.0368 0.03126,0.07191 0.04365,0.109057 0.01897,0.05688 0.0291,0.116327 0.04365,0.17449 0.05323,0.212773 -0.01177,-0.05291 0.04365,0.196303 0.0065,0.02926 0.01532,0.05798 0.02182,0.08724 0.008,0.03619 0.0088,0.07435 0.02183,0.109057 0.07471,0.199103 0.01825,-0.03252 0.06548,0.109056 0.01398,0.04193 0.02263,0.11067 0.04365,0.15268 0.01897,0.03792 0.05098,0.06922 0.06548,0.109057 0.01512,0.04156 0.0048,0.09005 0.02182,0.130868 0.02018,0.04839 0.06384,0.08397 0.0873,0.130868 0.03458,0.06911 0.04459,0.145059 0.06548,0.218114 0.0063,0.02211 0.01,0.04572 0.02182,0.06543 0.01059,0.01763 0.0291,0.02908 0.04365,0.04362 0.01455,0.01454 0.02719,0.03128 0.04365,0.04362 0.01301,0.0098 0.0297,0.01345 0.04365,0.02181 0.0225,0.01349 0.04137,0.0333 0.06548,0.04362 0.02757,0.01181 0.06047,0.0084 0.0873,0.02181 0.0184,0.0092 0.02525,0.03443 0.04365,0.04362 4.89e-4,2.52e-4 0.171126,0.04263 0.174608,0.04362 0.02212,0.0063 0.04258,0.01952 0.06548,0.02181 0.05067,0.0051 0.101854,0 0.152782,0 0.145506,0 0.291013,0 0.436519,0 0.03638,0 0.07275,0 0.10913,0 0.01455,0 0.02919,-0.0016 0.04365,0 0.102259,0.01135 0.204074,0.02672 0.305563,0.04362 0.03659,0.0061 0.07222,0.01812 0.10913,0.02181 0.0362,0.0036 0.07293,-0.0036 0.10913,0 0.105698,0.01056 0.205346,0.05643 0.305563,0.08725 0.490071,0.139926 -0.118024,-0.03931 0.261912,0.08724 0.124176,0.04136 0.04768,0.0016 0.152782,0.04362 0.0151,0.006 0.02855,0.01577 0.04365,0.02181 0.02136,0.0085 0.04575,0.01 0.06548,0.02181 0.01765,0.01058 0.02413,0.03712 0.04365,0.04362 0.02761,0.0092 0.0585,-0.0041 0.08731,0 0.02277,0.0033 0.04336,0.01549 0.06548,0.02181 0.02884,0.0082 0.05857,0.0132 0.0873,0.02181 0.04407,0.01321 0.08823,0.02654 0.130956,0.04362 0.03021,0.01208 0.05757,0.03042 0.0873,0.04362 0.01142,0.0051 0.141882,0.05889 0.174607,0.06543 0.01427,0.0028 0.02938,-0.0028 0.04365,0 0.02256,0.0045 0.04292,0.0173 0.06548,0.02181 0.01427,0.0028 0.0291,0 0.04365,0 0.0073,0 0.01532,-0.0033 0.02182,0 0.0184,0.0092 0.02413,0.03712 0.04365,0.04362 0.0138,0.0046 0.02953,-0.0035 0.04365,0 0.01578,0.004 0.02787,0.01787 0.04365,0.02181 0.01412,0.0035 0.02985,-0.0046 0.04365,0 0.0046,0.0015 0.06148,0.05944 0.06548,0.06543 0.009,0.01353 0.01032,0.03213 0.02182,0.04362 0.0014,0.0014 0.08324,0.04091 0.0873,0.04362 0.0086,0.0057 0.01262,0.01721 0.02183,0.02181 0.0065,0.0033 0.01455,0 0.02182,0 0.0073,0 0.01455,0 0.02182,0 0.0073,0 0.02593,0.006 0.02182,0 -0.05578,-0.08164 -0.121322,-0.156244 -0.182003,-0.234381"
       id="path3857"
       inkscape:connector-curvature="0"
       sodipodi:nodetypes="cssssscccccccccccccccccccccccscccccccssscccccsccccccccccccscccccccccsscc" />
    <path
       style="fill:none;stroke:#0000ff;stroke-width:1;stroke-linecap:butt;stroke-linejoin:miter;stroke-miterlimit:4;stroke-opacity:1;stroke-dasharray:none"
       d="m 4,17.5 c 1.1232701,0.03134 0.6542825,-0.189661 2.0646645,-0.168402 0.1091297,0 0.2182595,0 0.3273893,0 0.050927,0 0.1019424,-0.003 0.1527816,0 0.07299,0.0043 0.1456445,0.01327 0.2182596,0.02181 0.051092,0.006 0.102655,0.01025 0.152782,0.02181 0.1261417,0.02909 0.1577552,0.06409 0.2837376,0.109056 0.049879,0.0178 0.1029024,0.02582 0.1527816,0.04362 0.052179,0.01862 0.099947,0.04876 0.152782,0.06543 0.085813,0.02708 0.1776506,0.03386 0.2619114,0.06543 0.091394,0.03425 0.173179,0.09023 0.2619114,0.130868 0.085979,0.03938 0.1751762,0.07137 0.2619119,0.109057 0.048216,0.02095 0.259874,0.122919 0.3492155,0.152679 0.050247,0.01674 0.1033467,0.02462 0.1527816,0.04362 0.051526,0.0198 0.3130243,0.163157 0.3273893,0.174491 0.1197002,0.119619 0.2780268,0.286379 0.4146935,0.392604 0.062118,0.04828 0.1334781,0.08368 0.1964339,0.130868 0.057617,0.04318 0.095931,0.108492 0.1527816,0.152679 0.033488,0.02603 0.076921,0.03785 0.1091297,0.06544 0.070307,0.06022 0.130956,0.130868 0.196434,0.196302 0.12368,0.123597 0.245283,0.249307 0.371041,0.370793 0.09254,0.0894 0.198706,0.165173 0.283738,0.261736 0.07599,0.0863 0.129572,0.190004 0.196434,0.283547 0.07574,0.105964 0.140562,0.171881 0.196433,0.283548 0.01752,0.03502 0.02489,0.07468 0.04365,0.109057 0.02512,0.04603 0.06261,0.08461 0.0873,0.130868 0.03372,0.06318 0.05218,0.133892 0.0873,0.196302 0.03068,0.05451 0.07759,0.09866 0.109129,0.152679 0.01974,0.03382 0.02422,0.07506 0.04365,0.109057 0.01021,0.01785 0.0291,0.02908 0.04365,0.04362 0.0073,0.0073 0.01722,0.01261 0.02182,0.02181 0.0033,0.0065 0,0.01454 0,0.02181 0.04365,0.05816 0.08836,0.115551 0.130956,0.174491 0.111759,0.154639 0.220963,0.337443 0.349216,0.47985 0.114987,0.127678 0.09231,0.07294 0.174607,0.196302 0.125356,0.187906 0.226522,0.387306 0.32739,0.588906 0.0291,0.05816 0.06167,0.11472 0.0873,0.174491 0.01812,0.04226 0.02793,0.08765 0.04365,0.130868 0.01339,0.0368 0.0291,0.0727 0.04365,0.109057 0.01455,0.03635 0.02613,0.07404 0.04365,0.109057 0.139966,0.279744 0.0825,0.107956 0.196434,0.392604 0.01151,0.02875 0.05963,0.171369 0.06548,0.218113 0.0036,0.02886 -0.008,0.05928 0,0.08725 0.0072,0.0252 0.03332,0.04134 0.04365,0.06543 0.0168,0.03916 0.03329,0.161797 0.04365,0.196303 0.08255,0.274978 0.0069,-0.08646 0.0873,0.261736 0.04456,0.192956 0.0045,0.08044 0.02182,0.305359 0.0163,0.211694 0.01568,0.01384 0.06548,0.196302 0.01353,0.0496 0.01455,0.101786 0.02182,0.152679 0.01455,0.05089 0.02808,0.102091 0.04365,0.15268 0.03383,0.109872 0.07044,0.218911 0.10913,0.32717 0.01318,0.03687 0.02463,0.07483 0.04365,0.109057 0.01767,0.03177 0.05197,0.05349 0.06548,0.08724 0.01643,0.04106 0.01109,0.08796 0.02182,0.130868 0.01842,0.07364 0.04146,0.146103 0.06548,0.218114 0.01104,0.0331 0.110079,0.294297 0.130956,0.370793 0.0098,0.03577 0.01283,0.07309 0.02182,0.109057 0.0056,0.0223 0.01731,0.04289 0.02182,0.06543 0.0028,0.01426 -0.0035,0.02951 0,0.04362 0.004,0.01577 0.01668,0.0282 0.02183,0.04362 0.03627,0.10875 0.01141,0.08925 0.04365,0.218113 0.01116,0.04461 0.03249,0.08626 0.04365,0.130869 0.01073,0.0429 0.0091,0.08851 0.02182,0.130868 0.0094,0.03114 0.03044,0.05753 0.04365,0.08724 0.03183,0.07156 0.0582,0.145409 0.0873,0.218114 0.01455,0.03635 0.03769,0.07036 0.04365,0.109057 0.0089,0.05749 -0.0042,0.116474 0,0.17449 0.0031,0.04411 0.01455,0.08725 0.02182,0.130868 0.0073,0.04362 0.01391,0.08736 0.02182,0.130868 C 14,29 14.5,28 14.5,29"
       id="path3859"
       inkscape:connector-curvature="0"
       sodipodi:nodetypes="ccsccscccccscccccccsccscccccccccsssscccsccccccsccccccccccccccccccccccc" />
  </g>
</svg>
